{
	"asset":{
		"generator":"Khronos glTF Blender I/O v4.0.44",
		"version":"2.0"
	},
	"scene":0,
	"scenes":[
		{
			"name":"Scene",
			"nodes":[
				0
			]
		}
	],
	"nodes":[
		{
			"mesh":0,
			"name":"Ramp"
		}
	],
	"meshes":[
		{
			"name":"Cube.003",
			"primitives":[
				{
					"attributes":{
						"POSITION":0,
						"NORMAL":1,
						"TEXCOORD_0":2
					},
					"indices":3
				}
			]
		}
	],
	"accessors":[
		{
			"bufferView":0,
			"componentType":5126,
			"count":84,
			"max":[
				1.5097750425338745,
				0.6894177794456482,
				1.0000152587890625
			],
			"min":[
				1.0109930038452148,
				0.40514853596687317,
				-0.9999847412109375
			],
			"type":"VEC3"
		},
		{
			"bufferView":1,
			"componentType":5126,
			"count":84,
			"type":"VEC3"
		},
		{
			"bufferView":2,
			"componentType":5126,
			"count":84,
			"type":"VEC2"
		},
		{
			"bufferView":3,
			"componentType":5123,
			"count":156,
			"type":"SCALAR"
		}
	],
	"bufferViews":[
		{
			"buffer":0,
			"byteLength":1008,
			"byteOffset":0,
			"target":34962
		},
		{
			"buffer":0,
			"byteLength":1008,
			"byteOffset":1008,
			"target":34962
		},
		{
			"buffer":0,
			"byteLength":672,
			"byteOffset":2016,
			"target":34962
		},
		{
			"buffer":0,
			"byteLength":312,
			"byteOffset":2688,
			"target":34963
		}
	],
	"buffers":[
		{
			"byteLength":3000,
			"uri":"ramp.bin"
		}
	]
}
